<svg xmlns="http://www.w3.org/2000/svg" viewBox="0 0 33.35 31.72"><defs><style>.cls-1{fill:#e76456;}</style></defs><g id="Layer_2" data-name="Layer 2"><g id="Main"><path class="cls-1" d="M15.3,18.49c-.2,0-.35,0-.5,0-.91,0-1.81,0-2.72,0a.85.85,0,0,1-.89-.55.93.93,0,0,1,.29-1.08L16,12.89l2.77-2.42c.57-.5,1.27-.43,1.51.19a1.13,1.13,0,0,1,0,.81c-.64,1.58-1.32,3.14-2,4.71-.06.13-.1.26-.18.45l.45,0h2.64a.92.92,0,0,1,.61,1.7q-3.55,3.12-7.12,6.23a1.55,1.55,0,0,1-.74.38c-.7.08-1.12-.61-.82-1.34.38-.93.8-1.85,1.19-2.78Z"/><path class="cls-1" d="M27,31.72H6.37L0,12.12,16.68,0,33.35,12.12Zm-18.42-3H24.79l5-15.44L16.68,3.72,3.54,13.27Z"/></g></g></svg>