<svg xmlns="http://www.w3.org/2000/svg" xmlns:xlink="http://www.w3.org/1999/xlink" viewBox="0 0 177.91 18.84"><defs><style>.cls-1{fill:url(#linear-gradient);}</style><linearGradient id="linear-gradient" x1="0.01" y1="9.23" x2="178.31" y2="9.88" gradientUnits="userSpaceOnUse"><stop offset="0" stop-color="#ef5a4a"/><stop offset="1" stop-color="#f09b57"/></linearGradient></defs><g id="Layer_2" data-name="Layer 2"><g id="Main"><path class="cls-1" d="M177.91,5c-14.79-1.48-29.65-2.19-44.49-2.46s-29.69,0-44.48.92a430.59,430.59,0,0,0-44.1,4.89c-7.28,1.22-14.5,2.7-21.66,4.39S9,16.52,2,18.84L0,12.51Q10.86,9.32,21.92,7.07c7.37-1.45,14.76-2.68,22.19-3.64A431.85,431.85,0,0,1,88.79.15q22.38-.52,44.69.74C148.34,1.72,163.18,3,177.91,5Z" transform="translate(0 0)"/></g></g></svg>