<svg xmlns="http://www.w3.org/2000/svg" viewBox="0 0 111.02 31.72"><defs><style>.cls-1{fill:#fff;}.cls-2{fill:#e76456;}</style></defs><g id="Layer_2" data-name="Layer 2"><g id="Main"><path class="cls-1" d="M56.22,7.67l-.67,3.87h-7L48,14.61h5.13l-.64,3.7H47.37l-1.22,6.84H41.27l3.1-17.48Z"/><path class="cls-1" d="M62.07,6.81,58.82,25.15H53.94L57.18,6.81Z"/><path class="cls-1" d="M73.43,12.53a5.14,5.14,0,0,1,1.6,4A8.25,8.25,0,0,1,74.91,18a5.88,5.88,0,0,1-.3,1.14h-9.2c0,.1,0,.25,0,.45A1.82,1.82,0,0,0,65.85,21a1.65,1.65,0,0,0,1.22.45A2.22,2.22,0,0,0,69,20.34h5.15a7.36,7.36,0,0,1-1.7,2.56,8.08,8.08,0,0,1-2.65,1.78,8.17,8.17,0,0,1-3.23.64,6.1,6.1,0,0,1-4.34-1.49,5.3,5.3,0,0,1-1.61-4.09,8.74,8.74,0,0,1,.15-1.56,9,9,0,0,1,1.57-3.78,8,8,0,0,1,2.93-2.46,8.45,8.45,0,0,1,3.83-.87A6.17,6.17,0,0,1,73.43,12.53Zm-3.26,4a1.46,1.46,0,0,0-.49-1.2,2,2,0,0,0-1.29-.41,2.51,2.51,0,0,0-1.59.52,3,3,0,0,0-1,1.54h4.31A2.87,2.87,0,0,0,70.17,16.52Z"/><path class="cls-1" d="M84.8,18.33l3.69,6.82H83l-1.89-3.5-2.6,3.5H73.24l5.88-7.22L75.5,11.24H81l1.89,3.5,2.63-3.5h5.32Z"/><path class="cls-1" d="M96.64,7.67,93.57,25.15H88.69l3.1-17.48Z"/><path class="cls-1" d="M109.87,12.3A4.44,4.44,0,0,1,111,15.56a8,8,0,0,1-.15,1.48l-1.44,8.11h-4.86l1.32-7.46A3.39,3.39,0,0,0,106,17a1.84,1.84,0,0,0-.51-1.39,1.93,1.93,0,0,0-1.42-.5,2.55,2.55,0,0,0-1.76.65,3.26,3.26,0,0,0-1,1.78L100,25.15H95.08l2.48-13.91h4.86l-.35,2a6.39,6.39,0,0,1,2-1.53,5.8,5.8,0,0,1,2.6-.58A4.24,4.24,0,0,1,109.87,12.3Z"/><path class="cls-2" d="M15.3,18.49c-.2,0-.35,0-.5,0-.91,0-1.81,0-2.72,0a.85.85,0,0,1-.89-.55.93.93,0,0,1,.29-1.08L16,12.89l2.77-2.42c.57-.5,1.27-.43,1.51.19a1.13,1.13,0,0,1,0,.81c-.64,1.58-1.32,3.14-2,4.71-.06.13-.1.26-.18.45l.45,0h2.64a.92.92,0,0,1,.61,1.7q-3.55,3.12-7.12,6.23a1.55,1.55,0,0,1-.74.38c-.7.08-1.12-.61-.82-1.34.38-.93.8-1.85,1.19-2.78Z"/><path class="cls-2" d="M27,31.72H6.37L0,12.12,16.68,0,33.35,12.12Zm-18.42-3H24.79l5-15.44L16.68,3.72,3.54,13.27Z"/></g></g></svg>